<svg xmlns="http://www.w3.org/2000/svg" xmlns:xlink="http://www.w3.org/1999/xlink" width="124" height="124" viewBox="0 0 124 124">
  <defs>
    <filter id="Ellipse_3" x="0" y="0" width="124" height="124" filterUnits="userSpaceOnUse">
      <feOffset input="SourceAlpha"/>
      <feGaussianBlur stdDeviation="7.5" result="blur"/>
      <feFlood flood-opacity="0.161"/>
      <feComposite operator="in" in2="blur"/>
      <feComposite in="SourceGraphic"/>
    </filter>
  </defs>
  <g id="Group_7" data-name="Group 7" transform="translate(-927.5 -1456.5)">
    <g transform="matrix(1, 0, 0, 1, 927.5, 1456.5)" filter="url(#Ellipse_3)">
      <circle id="Ellipse_3-2" data-name="Ellipse 3" cx="39.5" cy="39.5" r="39.5" transform="translate(22.5 22.5)" fill="#cb4bf8"/>
    </g>
    <path id="Icon_material-high-quality" data-name="Icon material-high-quality" d="M28.5,6H7.5a3,3,0,0,0-3,3V27a3,3,0,0,0,3,3h21a3.009,3.009,0,0,0,3-3V9A3.009,3.009,0,0,0,28.5,6Zm-12,16.5H14.25v-3h-3v3H9v-9h2.25v3.75h3V13.5H16.5ZM27,21a1.5,1.5,0,0,1-1.5,1.5H24.375v2.25h-2.25V22.5H21A1.5,1.5,0,0,1,19.5,21V15A1.5,1.5,0,0,1,21,13.5h4.5A1.5,1.5,0,0,1,27,15Zm-5.25-.75h3v-4.5h-3Z" transform="translate(972.5 1501)" fill="#fff"/>
  </g>
</svg>
